<svg xmlns="http://www.w3.org/2000/svg" width="1180" height="624" viewBox="0 0 1180 624" font-family="Segoe UI, Roboto, Helvetica, Arial, sans-serif">
  <defs>
    <filter id="soft" x="-20%" y="-20%" width="140%" height="140%">
      <feDropShadow dx="0" dy="4" stdDeviation="10" flood-color="#5C1010" flood-opacity="0.06"/>
    </filter>
  </defs>
  <rect width="1180" height="624" fill="#FAF7F7"/>

  <!-- ===== Header ===== -->
  <text x="40" y="50" font-size="24" font-weight="800" fill="#1E293B">Admin Dashboard</text>
  <text x="40" y="74" font-size="13.5" fill="#8A6A6A">Program overview · all offices</text>
  <!-- period pill -->
  <rect x="942" y="34" width="214" height="36" rx="18" fill="#FFFFFF" stroke="#EFE3E3"/>
  <rect x="958" y="46" width="12" height="12" rx="2.5" fill="none" stroke="#7D1A1A" stroke-width="1.5"/><line x1="958" y1="50" x2="970" y2="50" stroke="#7D1A1A" stroke-width="1.5"/>
  <text x="982" y="57" font-size="12.5" font-weight="600" fill="#7D1A1A">AY 2024–2025 · 1st Semester</text>

  <!-- ===== KPI cards ===== -->
  <!-- card 1 -->
  <g filter="url(#soft)"><rect x="24" y="92" width="270" height="104" rx="16" fill="#FFFFFF"/></g>
  <text x="44" y="126" font-size="11" font-weight="700" letter-spacing="0.6" fill="#94A3B8">ACTIVE RECIPIENTS</text>
  <text x="44" y="166" font-size="30" font-weight="800" fill="#1E293B">5</text>
  <circle cx="262" cy="124" r="18" fill="#FEF0F0"/>
  <circle cx="256" cy="121" r="3.4" fill="#7D1A1A"/><circle cx="268" cy="121" r="3.4" fill="#7D1A1A"/><path d="M250 132 a6 6 0 0 1 12 0 M262 132 a6 6 0 0 1 12 0" fill="#7D1A1A"/>
  <!-- card 2 -->
  <g filter="url(#soft)"><rect x="310" y="92" width="270" height="104" rx="16" fill="#FFFFFF"/></g>
  <text x="330" y="126" font-size="11" font-weight="700" letter-spacing="0.6" fill="#94A3B8">PENDING APPLICATIONS</text>
  <text x="330" y="166" font-size="30" font-weight="800" fill="#1E293B">0</text>
  <circle cx="548" cy="124" r="18" fill="#FEF3E0"/>
  <path d="M548 113 v11 l7 4" stroke="#F39C12" stroke-width="2" fill="none" stroke-linecap="round"/><circle cx="548" cy="124" r="11" fill="none" stroke="#F39C12" stroke-width="2"/>
  <!-- card 3 -->
  <g filter="url(#soft)"><rect x="596" y="92" width="270" height="104" rx="16" fill="#FFFFFF"/></g>
  <text x="616" y="126" font-size="11" font-weight="700" letter-spacing="0.6" fill="#94A3B8">VERIFIED HOURS</text>
  <text x="616" y="166" font-size="30" font-weight="800" fill="#1E293B">248<tspan font-size="18" fill="#8A6A6A">h</tspan></text>
  <circle cx="834" cy="124" r="18" fill="#EAF7EF"/>
  <path d="M827 124 l5 5 l9 -10" stroke="#27AE60" stroke-width="2.2" fill="none" stroke-linecap="round" stroke-linejoin="round"/>
  <!-- card 4 -->
  <g filter="url(#soft)"><rect x="882" y="92" width="270" height="104" rx="16" fill="#FFFFFF"/></g>
  <text x="902" y="126" font-size="11" font-weight="700" letter-spacing="0.6" fill="#94A3B8">AVG COMPLETION</text>
  <text x="902" y="166" font-size="30" font-weight="800" fill="#1E293B">32<tspan font-size="18" fill="#8A6A6A">%</tspan></text>
  <circle cx="1120" cy="124" r="18" fill="#FBF3DF"/>
  <circle cx="1120" cy="124" r="9" fill="none" stroke="#B8901F" stroke-width="2.2"/><circle cx="1120" cy="124" r="3" fill="#B8901F"/>

  <!-- ===== Office Distribution (horizontal bars) ===== -->
  <g filter="url(#soft)"><rect x="24" y="220" width="720" height="380" rx="18" fill="#FFFFFF"/></g>
  <text x="48" y="258" font-size="16" font-weight="700" fill="#1E293B">Office Distribution</text>
  <text x="48" y="278" font-size="12.5" fill="#8A6A6A">Recipients assigned per office</text>

  <!-- row template: dot + name (left), count·% (right), track + fill -->
  <!-- r1 -->
  <circle cx="50" cy="312" r="5" fill="#7D1A1A"/>
  <text x="66" y="316" font-size="13.5" font-weight="600" fill="#1E293B">University Library</text>
  <text x="720" y="316" font-size="12.5" fill="#8A6A6A" text-anchor="end">1 · 20%</text>
  <rect x="48" y="326" width="672" height="8" rx="4" fill="#F1E9E9"/><rect x="48" y="326" width="134" height="8" rx="4" fill="#7D1A1A"/>
  <!-- r2 -->
  <circle cx="50" cy="368" r="5" fill="#2980B9"/>
  <text x="66" y="372" font-size="13.5" font-weight="600" fill="#1E293B">Office of the Registrar</text>
  <text x="720" y="372" font-size="12.5" fill="#8A6A6A" text-anchor="end">1 · 20%</text>
  <rect x="48" y="382" width="672" height="8" rx="4" fill="#F1E9E9"/><rect x="48" y="382" width="134" height="8" rx="4" fill="#2980B9"/>
  <!-- r3 -->
  <circle cx="50" cy="424" r="5" fill="#27AE60"/>
  <text x="66" y="428" font-size="13.5" font-weight="600" fill="#1E293B">Information Technology Center</text>
  <text x="720" y="428" font-size="12.5" fill="#8A6A6A" text-anchor="end">1 · 20%</text>
  <rect x="48" y="438" width="672" height="8" rx="4" fill="#F1E9E9"/><rect x="48" y="438" width="134" height="8" rx="4" fill="#27AE60"/>
  <!-- r4 -->
  <circle cx="50" cy="480" r="5" fill="#E6A817"/>
  <text x="66" y="484" font-size="13.5" font-weight="600" fill="#1E293B">Finance and Accounting Office</text>
  <text x="720" y="484" font-size="12.5" fill="#8A6A6A" text-anchor="end">1 · 20%</text>
  <rect x="48" y="494" width="672" height="8" rx="4" fill="#F1E9E9"/><rect x="48" y="494" width="134" height="8" rx="4" fill="#E6A817"/>
  <!-- r5 -->
  <circle cx="50" cy="536" r="5" fill="#C0563B"/>
  <text x="66" y="540" font-size="13.5" font-weight="600" fill="#1E293B">Campo Ranao St.</text>
  <text x="720" y="540" font-size="12.5" fill="#8A6A6A" text-anchor="end">1 · 20%</text>
  <rect x="48" y="550" width="672" height="8" rx="4" fill="#F1E9E9"/><rect x="48" y="550" width="134" height="8" rx="4" fill="#C0563B"/>

  <!-- ===== Needs Attention panel ===== -->
  <g filter="url(#soft)"><rect x="760" y="220" width="396" height="380" rx="18" fill="#FFFFFF"/></g>
  <text x="784" y="258" font-size="16" font-weight="700" fill="#1E293B">Needs Attention</text>

  <!-- action: pending verifications -->
  <rect x="780" y="278" width="356" height="62" rx="12" fill="#FFF7ED" stroke="#F6E0BE"/>
  <circle cx="810" cy="309" r="16" fill="#FDEBCF"/><path d="M810 300 v9 l6 3" stroke="#D97706" stroke-width="2" fill="none" stroke-linecap="round"/><circle cx="810" cy="309" r="9" fill="none" stroke="#D97706" stroke-width="2"/>
  <text x="836" y="304" font-size="13.5" font-weight="700" fill="#92400E">Pending verifications</text>
  <text x="836" y="322" font-size="11.5" fill="#B45309">1 attendance log needs review</text>
  <text x="1118" y="314" font-size="12" font-weight="700" fill="#92400E" text-anchor="end">Review →</text>

  <!-- status: pending applications clear -->
  <rect x="780" y="350" width="356" height="62" rx="12" fill="#F1FAF4" stroke="#CDEBD8"/>
  <circle cx="810" cy="381" r="16" fill="#D8F0E2"/><path d="M803 381 l5 5 l9 -10" stroke="#1E8E50" stroke-width="2.2" fill="none" stroke-linecap="round" stroke-linejoin="round"/>
  <text x="836" y="376" font-size="13.5" font-weight="700" fill="#166534">Applications</text>
  <text x="836" y="394" font-size="11.5" fill="#15803D">0 pending — you're all caught up</text>

  <!-- snapshot -->
  <line x1="784" y1="442" x2="1132" y2="442" stroke="#F1E9E9"/>
  <text x="784" y="466" font-size="11" font-weight="700" letter-spacing="0.6" fill="#94A3B8">PROGRAM SNAPSHOT</text>

  <text x="784" y="498" font-size="13.5" fill="#475569">Total applications</text>
  <text x="1132" y="498" font-size="14" font-weight="700" fill="#1E293B" text-anchor="end">3</text>
  <text x="784" y="530" font-size="13.5" fill="#475569">Total offices</text>
  <text x="1132" y="530" font-size="14" font-weight="700" fill="#1E293B" text-anchor="end">6</text>
  <text x="784" y="562" font-size="13.5" fill="#475569">Stipend pending</text>
  <text x="1132" y="562" font-size="14" font-weight="700" fill="#1E293B" text-anchor="end">₱0.00</text>
</svg>
