<svg xmlns="http://www.w3.org/2000/svg" width="1180" height="900" viewBox="0 0 1180 900" font-family="Segoe UI, Roboto, Helvetica, Arial, sans-serif">
  <defs>
    <linearGradient id="gold" x1="0" y1="0" x2="1" y2="1">
      <stop offset="0" stop-color="#E6C66A"/><stop offset="1" stop-color="#B8901F"/>
    </linearGradient>
    <filter id="soft" x="-20%" y="-20%" width="140%" height="140%">
      <feDropShadow dx="0" dy="5" stdDeviation="12" flood-color="#5C1010" flood-opacity="0.08"/>
    </filter>
  </defs>
  <rect width="1180" height="900" fill="#FAF7F7"/>

  <!-- Header -->
  <text x="40" y="46" font-size="26" font-weight="800" fill="#1E293B">My Students</text>
  <text x="40" y="72" font-size="14" fill="#8A6A6A">SWAP recipients assigned to you — grant bonus hours or adjust required hours directly.</text>

  <!-- search -->
  <rect x="700" y="28" width="230" height="40" rx="10" fill="#FFFFFF" stroke="#EAD9D9"/>
  <circle cx="724" cy="48" r="6" fill="none" stroke="#B09A9A" stroke-width="1.6"/>
  <line x1="728" y1="52" x2="733" y2="57" stroke="#B09A9A" stroke-width="1.6"/>
  <text x="742" y="53" font-size="13" fill="#B09A9A">Search students…</text>

  <!-- VIEW TOGGLE (Cards | List) -->
  <rect x="946" y="28" width="194" height="40" rx="10" fill="#F1ECEC"/>
  <!-- Cards (inactive) -->
  <rect x="664" y="0" width="0" height="0" fill="none"/>
  <g>
    <rect x="6" y="6" width="2" height="2" fill="none"/>
  </g>
  <!-- left: Cards -->
  <rect x="951" y="33" width="90" height="30" rx="8" fill="#F1ECEC"/>
  <rect x="966" y="42" width="6" height="6" rx="1.5" fill="#8A6A6A"/><rect x="975" y="42" width="6" height="6" rx="1.5" fill="#8A6A6A"/>
  <rect x="966" y="51" width="6" height="6" rx="1.5" fill="#8A6A6A"/><rect x="975" y="51" width="6" height="6" rx="1.5" fill="#8A6A6A"/>
  <text x="1010" y="53" font-size="12.5" font-weight="600" fill="#8A6A6A" text-anchor="middle">Cards</text>
  <!-- right: List (active) -->
  <rect x="1045" y="33" width="90" height="30" rx="8" fill="#7D1A1A"/>
  <rect x="1060" y="43" width="14" height="2" rx="1" fill="#FFFFFF"/><rect x="1060" y="48" width="14" height="2" rx="1" fill="#FFFFFF"/><rect x="1060" y="53" width="14" height="2" rx="1" fill="#FFFFFF"/>
  <text x="1102" y="53" font-size="12.5" font-weight="700" fill="#FFFFFF" text-anchor="middle">List</text>

  <!-- summary chips -->
  <rect x="40" y="92" width="104" height="26" rx="13" fill="#FFFFFF" stroke="#EAD9D9"/>
  <text x="58" y="109" font-size="12.5" font-weight="600" fill="#1E293B">4 students</text>
  <rect x="154" y="92" width="150" height="26" rx="13" fill="#FFFBEB" stroke="#F3E2B8"/>
  <circle cx="172" cy="105" r="4" fill="#F39C12"/>
  <text x="184" y="109" font-size="12.5" font-weight="600" fill="#92400E">2 logs to review</text>

  <text x="40" y="158" font-size="13" font-weight="700" letter-spacing="1" fill="#B8901F">LIST VIEW</text>

  <!-- ============ LIST CONTAINER ============ -->
  <g filter="url(#soft)"><rect x="40" y="172" width="1100" height="360" rx="18" fill="#FFFFFF"/></g>
  <!-- column header -->
  <rect x="40" y="172" width="1100" height="40" rx="18" fill="#F8FAFC"/>
  <rect x="40" y="200" width="1100" height="12" fill="#F8FAFC"/>
  <text x="72" y="197" font-size="11.5" font-weight="700" letter-spacing="0.5" fill="#64748B">STUDENT</text>
  <text x="430" y="197" font-size="11.5" font-weight="700" letter-spacing="0.5" fill="#64748B">OFFICE</text>
  <text x="680" y="197" font-size="11.5" font-weight="700" letter-spacing="0.5" fill="#64748B">PROGRESS</text>
  <text x="1110" y="197" font-size="11.5" font-weight="700" letter-spacing="0.5" fill="#64748B" text-anchor="end">ACTIONS</text>

  <!-- ROW template -->
  <!-- Row 1 -->
  <g transform="translate(0,212)">
    <circle cx="68" cy="40" r="18" fill="url(#gold)"/><text x="68" y="46" font-size="16" font-weight="800" fill="#531010" text-anchor="middle">N</text>
    <text x="98" y="36" font-size="14.5" font-weight="700" fill="#1E293B">Norhana Macarimbang</text>
    <text x="98" y="53" font-size="11" fill="#94A3B8">norhana@student.msu-marawi.edu.ph</text>
    <rect x="290" y="28" width="92" height="22" rx="11" fill="#FFFBEB"/><text x="336" y="43" font-size="10.5" font-weight="700" fill="#92400E" text-anchor="middle">2 to review</text>
    <text x="430" y="44" font-size="12.5" fill="#64748B">Information Technology Center</text>
    <text x="680" y="34" font-size="11.5" text-anchor="start"><tspan font-weight="700" fill="#27AE60">3h</tspan><tspan fill="#94A3B8"> / 120h · 2.5%</tspan></text>
    <rect x="680" y="42" width="180" height="7" rx="3.5" fill="#EFE7E7"/><rect x="680" y="42" width="6" height="7" rx="3.5" fill="#27AE60"/>
    <rect x="892" y="26" width="80" height="28" rx="8" fill="#7D1A1A"/>
    <path d="M910 35 l2 4.5 l4.5 2 l-4.5 2 l-2 4.5 l-2 -4.5 l-4.5 -2 l4.5 -2 z" fill="#E6C66A"/>
    <text x="948" y="44" font-size="12" font-weight="700" fill="#FFFFFF" text-anchor="middle">Bonus</text>
    <rect x="980" y="26" width="74" height="28" rx="8" fill="#FFFFFF" stroke="#EAD9D9"/>
    <circle cx="998" cy="40" r="5.5" fill="none" stroke="#7D1A1A" stroke-width="1.5"/><circle cx="998" cy="40" r="1.8" fill="#7D1A1A"/>
    <text x="1031" y="44" font-size="12" font-weight="600" fill="#7D1A1A" text-anchor="middle">Hours</text>
    <rect x="1062" y="26" width="66" height="28" rx="8" fill="#FFFFFF" stroke="#E2E8F0"/>
    <text x="1095" y="44" font-size="12" font-weight="600" fill="#1B4F72" text-anchor="middle">View</text>
  </g>
  <line x1="64" y1="292" x2="1116" y2="292" stroke="#F1F5F9"/>

  <!-- Row 2 -->
  <g transform="translate(0,292)">
    <circle cx="68" cy="40" r="18" fill="url(#gold)"/><text x="68" y="46" font-size="16" font-weight="800" fill="#531010" text-anchor="middle">A</text>
    <text x="98" y="36" font-size="14.5" font-weight="700" fill="#1E293B">Amir Alonto</text>
    <text x="98" y="53" font-size="11" fill="#94A3B8">amir@student.msu-marawi.edu.ph</text>
    <text x="430" y="44" font-size="12.5" fill="#64748B">Finance and Accounting Office</text>
    <text x="680" y="34" font-size="11.5"><tspan font-weight="700" fill="#27AE60">12h</tspan><tspan fill="#94A3B8"> / 200h · 6%</tspan></text>
    <rect x="680" y="42" width="180" height="7" rx="3.5" fill="#EFE7E7"/><rect x="680" y="42" width="11" height="7" rx="3.5" fill="#27AE60"/>
    <rect x="892" y="26" width="80" height="28" rx="8" fill="#7D1A1A"/>
    <path d="M910 35 l2 4.5 l4.5 2 l-4.5 2 l-2 4.5 l-2 -4.5 l-4.5 -2 l4.5 -2 z" fill="#E6C66A"/>
    <text x="948" y="44" font-size="12" font-weight="700" fill="#FFFFFF" text-anchor="middle">Bonus</text>
    <rect x="980" y="26" width="74" height="28" rx="8" fill="#FFFFFF" stroke="#EAD9D9"/>
    <circle cx="998" cy="40" r="5.5" fill="none" stroke="#7D1A1A" stroke-width="1.5"/><circle cx="998" cy="40" r="1.8" fill="#7D1A1A"/>
    <text x="1031" y="44" font-size="12" font-weight="600" fill="#7D1A1A" text-anchor="middle">Hours</text>
    <rect x="1062" y="26" width="66" height="28" rx="8" fill="#FFFFFF" stroke="#E2E8F0"/>
    <text x="1095" y="44" font-size="12" font-weight="600" fill="#1B4F72" text-anchor="middle">View</text>
  </g>
  <line x1="64" y1="372" x2="1116" y2="372" stroke="#F1F5F9"/>

  <!-- Row 3 -->
  <g transform="translate(0,372)">
    <circle cx="68" cy="40" r="18" fill="url(#gold)"/><text x="68" y="46" font-size="16" font-weight="800" fill="#531010" text-anchor="middle">A</text>
    <text x="98" y="36" font-size="14.5" font-weight="700" fill="#1E293B">Ali Hassan Updated</text>
    <text x="98" y="53" font-size="11" fill="#94A3B8">ali@student.msu-marawi.edu.ph</text>
    <rect x="278" y="28" width="104" height="22" rx="11" fill="#FFFBEB"/><text x="330" y="43" font-size="10" font-weight="700" fill="#92400E" text-anchor="middle">→ 150h pending</text>
    <text x="430" y="44" font-size="12.5" fill="#64748B">Office of the Registrar</text>
    <text x="680" y="34" font-size="11.5"><tspan font-weight="700" fill="#27AE60">1h 11m</tspan><tspan fill="#94A3B8"> / 120h · 1%</tspan></text>
    <rect x="680" y="42" width="180" height="7" rx="3.5" fill="#EFE7E7"/><rect x="680" y="42" width="5" height="7" rx="3.5" fill="#27AE60"/>
    <rect x="892" y="26" width="80" height="28" rx="8" fill="#7D1A1A"/>
    <path d="M910 35 l2 4.5 l4.5 2 l-4.5 2 l-2 4.5 l-2 -4.5 l-4.5 -2 l4.5 -2 z" fill="#E6C66A"/>
    <text x="948" y="44" font-size="12" font-weight="700" fill="#FFFFFF" text-anchor="middle">Bonus</text>
    <rect x="980" y="26" width="74" height="28" rx="8" fill="#FFFFFF" stroke="#EAD9D9"/>
    <circle cx="998" cy="40" r="5.5" fill="none" stroke="#7D1A1A" stroke-width="1.5"/><circle cx="998" cy="40" r="1.8" fill="#7D1A1A"/>
    <text x="1031" y="44" font-size="12" font-weight="600" fill="#7D1A1A" text-anchor="middle">Hours</text>
    <rect x="1062" y="26" width="66" height="28" rx="8" fill="#FFFFFF" stroke="#E2E8F0"/>
    <text x="1095" y="44" font-size="12" font-weight="600" fill="#1B4F72" text-anchor="middle">View</text>
  </g>
  <line x1="64" y1="452" x2="1116" y2="452" stroke="#F1F5F9"/>

  <!-- Row 4 -->
  <g transform="translate(0,452)">
    <circle cx="68" cy="40" r="18" fill="url(#gold)"/><text x="68" y="46" font-size="16" font-weight="800" fill="#531010" text-anchor="middle">N</text>
    <text x="98" y="36" font-size="14.5" font-weight="700" fill="#1E293B">Norhadi M. Norodin</text>
    <text x="98" y="53" font-size="11" fill="#94A3B8">norodin.nm262@s.msumain.edu.ph</text>
    <text x="430" y="44" font-size="12.5" fill="#64748B">Campo Ranao St.</text>
    <text x="680" y="34" font-size="11.5"><tspan font-weight="700" fill="#27AE60">1h 1m</tspan><tspan fill="#94A3B8"> / 120h · 1%</tspan></text>
    <rect x="680" y="42" width="180" height="7" rx="3.5" fill="#EFE7E7"/><rect x="680" y="42" width="5" height="7" rx="3.5" fill="#27AE60"/>
    <rect x="892" y="26" width="80" height="28" rx="8" fill="#7D1A1A"/>
    <path d="M910 35 l2 4.5 l4.5 2 l-4.5 2 l-2 4.5 l-2 -4.5 l-4.5 -2 l4.5 -2 z" fill="#E6C66A"/>
    <text x="948" y="44" font-size="12" font-weight="700" fill="#FFFFFF" text-anchor="middle">Bonus</text>
    <rect x="980" y="26" width="74" height="28" rx="8" fill="#FFFFFF" stroke="#EAD9D9"/>
    <circle cx="998" cy="40" r="5.5" fill="none" stroke="#7D1A1A" stroke-width="1.5"/><circle cx="998" cy="40" r="1.8" fill="#7D1A1A"/>
    <text x="1031" y="44" font-size="12" font-weight="600" fill="#7D1A1A" text-anchor="middle">Hours</text>
    <rect x="1062" y="26" width="66" height="28" rx="8" fill="#FFFFFF" stroke="#E2E8F0"/>
    <text x="1095" y="44" font-size="12" font-weight="600" fill="#1B4F72" text-anchor="middle">View</text>
  </g>

  <!-- CARD VIEW preview note -->
  <text x="40" y="586" font-size="13" font-weight="700" letter-spacing="1" fill="#B8901F">CARDS VIEW  (toggle ↑)</text>

  <!-- two mini cards to show the alternate view -->
  <g transform="translate(40,600)">
    <g filter="url(#soft)"><rect width="540" height="190" rx="16" fill="#FFFFFF"/></g>
    <circle cx="42" cy="46" r="22" fill="url(#gold)"/><text x="42" y="52" font-size="18" font-weight="800" fill="#531010" text-anchor="middle">N</text>
    <text x="78" y="40" font-size="15" font-weight="700" fill="#1E293B">Norhana Macarimbang</text>
    <text x="78" y="59" font-size="11.5" fill="#94A3B8">norhana@student.msu-marawi.edu.ph</text>
    <rect x="404" y="30" width="108" height="24" rx="12" fill="#FFFBEB"/><text x="458" y="46" font-size="11" font-weight="700" fill="#92400E" text-anchor="middle">2 to review</text>
    <line x1="24" y1="80" x2="516" y2="80" stroke="#F1ECEC"/>
    <text x="24" y="108" font-size="13" fill="#64748B">Information Technology Center</text>
    <text x="24" y="138" font-size="12" fill="#8A6A6A">Verified hours</text>
    <text x="516" y="138" font-size="12" text-anchor="end"><tspan font-weight="700" fill="#27AE60">3h</tspan><tspan fill="#94A3B8"> / 120h · 2.5%</tspan></text>
    <rect x="24" y="146" width="492" height="8" rx="4" fill="#EFE7E7"/><rect x="24" y="146" width="14" height="8" rx="4" fill="#27AE60"/>
    <rect x="24" y="166" width="0" height="0"/>
  </g>
  <g transform="translate(600,600)">
    <g filter="url(#soft)"><rect width="540" height="190" rx="16" fill="#FFFFFF"/></g>
    <circle cx="42" cy="46" r="22" fill="url(#gold)"/><text x="42" y="52" font-size="18" font-weight="800" fill="#531010" text-anchor="middle">A</text>
    <text x="78" y="40" font-size="15" font-weight="700" fill="#1E293B">Amir Alonto</text>
    <text x="78" y="59" font-size="11.5" fill="#94A3B8">amir@student.msu-marawi.edu.ph</text>
    <line x1="24" y1="80" x2="516" y2="80" stroke="#F1ECEC"/>
    <text x="24" y="108" font-size="13" fill="#64748B">Finance and Accounting Office</text>
    <text x="24" y="138" font-size="12" fill="#8A6A6A">Verified hours</text>
    <text x="516" y="138" font-size="12" text-anchor="end"><tspan font-weight="700" fill="#27AE60">12h</tspan><tspan fill="#94A3B8"> / 200h · 6%</tspan></text>
    <rect x="24" y="146" width="492" height="8" rx="4" fill="#EFE7E7"/><rect x="24" y="146" width="30" height="8" rx="4" fill="#27AE60"/>
  </g>
</svg>
