<svg xmlns="http://www.w3.org/2000/svg" width="1180" height="710" viewBox="0 0 1180 710" font-family="Segoe UI, Roboto, Helvetica, Arial, sans-serif">
  <defs>
    <linearGradient id="gold" x1="0" y1="0" x2="1" y2="1">
      <stop offset="0" stop-color="#E6C66A"/><stop offset="1" stop-color="#B8901F"/>
    </linearGradient>
    <filter id="soft" x="-20%" y="-20%" width="140%" height="140%">
      <feDropShadow dx="0" dy="5" stdDeviation="12" flood-color="#5C1010" flood-opacity="0.08"/>
    </filter>
  </defs>
  <rect width="1180" height="710" fill="#FAF7F7"/>

  <!-- ===== Light header (no maroon hero) ===== -->
  <text x="40" y="52" font-size="24" font-weight="800" fill="#1E293B">Good afternoon, Prof. Sittie Hadja</text>
  <text x="40" y="76" font-size="14" fill="#8A6A6A">4 recipients under your supervision · Office of the Registrar</text>

  <!-- ===== Segmented stats bar (one bar, not separate tiles) ===== -->
  <g filter="url(#soft)"><rect x="24" y="100" width="1132" height="92" rx="18" fill="#FFFFFF"/></g>
  <!-- seg 1 -->
  <rect x="48" y="126" width="42" height="42" rx="12" fill="#FEF0F0"/>
  <circle cx="63" cy="143" r="4.5" fill="#7D1A1A"/><circle cx="75" cy="143" r="4.5" fill="#7D1A1A"/><path d="M57 158 a6 6 0 0 1 12 0 M69 158 a6 6 0 0 1 12 0" fill="#7D1A1A"/>
  <text x="106" y="150" font-size="28" font-weight="800" fill="#1E293B">4</text>
  <text x="106" y="170" font-size="12.5" fill="#8A6A6A">My Students</text>
  <line x1="401" y1="124" x2="401" y2="168" stroke="#EFE3E3"/>
  <!-- seg 2 (amber) -->
  <rect x="425" y="126" width="42" height="42" rx="12" fill="#FEF3E0"/>
  <circle cx="446" cy="147" r="11" fill="none" stroke="#F39C12" stroke-width="2.2"/><path d="M446 140 v7 l5 3" stroke="#F39C12" stroke-width="2.2" fill="none" stroke-linecap="round"/>
  <text x="483" y="150" font-size="28" font-weight="800" fill="#D97706">1</text>
  <text x="483" y="170" font-size="12.5" fill="#8A6A6A">Pending Verifications</text>
  <line x1="778" y1="124" x2="778" y2="168" stroke="#EFE3E3"/>
  <!-- seg 3 (green) -->
  <rect x="802" y="126" width="42" height="42" rx="12" fill="#EAF7EF"/>
  <path d="M814 147 l5 5 l11 -12" stroke="#27AE60" stroke-width="2.4" fill="none" stroke-linecap="round" stroke-linejoin="round"/>
  <text x="860" y="150" font-size="28" font-weight="800" fill="#1E293B">8</text>
  <text x="860" y="170" font-size="12.5" fill="#8A6A6A">Verified This Week</text>

  <!-- ===== Action Center: Needs Your Attention ===== -->
  <g filter="url(#soft)"><rect x="24" y="212" width="1132" height="166" rx="18" fill="#FFF7F7"/></g>
  <rect x="24" y="212" width="6" height="166" rx="3" fill="#7D1A1A"/>
  <rect x="24" y="212" width="1132" height="166" rx="18" fill="none" stroke="#F3D9D9"/>
  <text x="56" y="246" font-size="17" font-weight="800" fill="#7D1A1A">Needs Your Attention</text>
  <rect x="226" y="232" width="26" height="20" rx="10" fill="#F39C12"/><text x="239" y="246" font-size="12" font-weight="700" fill="#FFFFFF" text-anchor="middle">1</text>
  <text x="1132" y="246" font-size="12.5" font-weight="700" fill="#7D1A1A" text-anchor="end">Go to verifications →</text>
  <text x="56" y="266" font-size="12.5" fill="#8A6A6A">Attendance logs waiting for your verification.</text>

  <!-- pending row -->
  <g filter="url(#soft)"><rect x="48" y="286" width="1084" height="72" rx="14" fill="#FFFFFF"/></g>
  <circle cx="86" cy="322" r="20" fill="url(#gold)"/><text x="86" y="328" font-size="16" font-weight="800" fill="#531010" text-anchor="middle">A</text>
  <text x="120" y="316" font-size="15" font-weight="700" fill="#1E293B">Amir Alonto</text>
  <text x="120" y="335" font-size="12" fill="#8A6A6A">Finance and Accounting Office · clocked out · 3h 0m</text>
  <rect x="470" y="310" width="150" height="22" rx="11" fill="#FFF7ED"/>
  <path d="M483 326 l5 -9 l5 9 z" fill="none" stroke="#92400E" stroke-width="1.4"/>
  <text x="500" y="326" font-size="11" font-weight="600" fill="#92400E">Location unverified</text>
  <!-- actions -->
  <rect x="900" y="306" width="92" height="32" rx="9" fill="#27AE60"/>
  <path d="M918 322 l4 4 l9 -10" stroke="#FFFFFF" stroke-width="2" fill="none" stroke-linecap="round" stroke-linejoin="round"/>
  <text x="958" y="326" font-size="12.5" font-weight="700" fill="#FFFFFF" text-anchor="middle">Verify</text>
  <rect x="1000" y="306" width="100" height="32" rx="9" fill="#FFFFFF" stroke="#EAD9D9"/>
  <text x="1050" y="326" font-size="12.5" font-weight="600" fill="#7D1A1A" text-anchor="middle">Review</text>

  <!-- ===== Two columns ===== -->
  <!-- LEFT: Currently Clocked In -->
  <g filter="url(#soft)"><rect x="24" y="398" width="556" height="288" rx="18" fill="#FFFFFF"/></g>
  <circle cx="52" cy="432" r="5" fill="#27AE60"/>
  <text x="68" y="437" font-size="16" font-weight="700" fill="#1E293B">Currently Clocked In</text>
  <rect x="262" y="422" width="34" height="22" rx="11" fill="#EAF7EF"/><text x="279" y="437" font-size="12" font-weight="700" fill="#27AE60" text-anchor="middle">1</text>

  <rect x="48" y="460" width="508" height="66" rx="14" fill="#F6FBF7" stroke="#D8EFE0"/>
  <circle cx="82" cy="493" r="18" fill="url(#gold)"/><text x="82" y="499" font-size="15" font-weight="800" fill="#531010" text-anchor="middle">N</text>
  <text x="112" y="487" font-size="14" font-weight="700" fill="#1E293B">Norhana Macarimbang</text>
  <text x="112" y="505" font-size="11.5" fill="#8A6A6A">Information Technology Center</text>
  <rect x="456" y="479" width="76" height="28" rx="14" fill="#27AE60"/>
  <text x="494" y="497" font-size="12" font-weight="800" fill="#FFFFFF" text-anchor="middle">01:23:45</text>

  <text x="302" y="600" font-size="12.5" fill="#94A3B8" text-anchor="middle">Live · updates every 20s. Click to review a log.</text>

  <!-- RIGHT: My Students -->
  <g filter="url(#soft)"><rect x="604" y="398" width="552" height="288" rx="18" fill="#FFFFFF"/></g>
  <text x="632" y="437" font-size="16" font-weight="700" fill="#1E293B">My Students</text>
  <text x="1128" y="437" font-size="12.5" font-weight="600" fill="#7D1A1A" text-anchor="end">View all →</text>

  <g>
    <g transform="translate(632,458)">
      <circle cx="18" cy="20" r="16" fill="url(#gold)"/><text x="18" y="25" font-size="13" font-weight="800" fill="#531010" text-anchor="middle">N</text>
      <text x="46" y="16" font-size="13.5" font-weight="700" fill="#1E293B">Norhana Macarimbang</text>
      <text x="46" y="32" font-size="11" fill="#94A3B8">Information Technology Center</text>
      <text x="496" y="24" font-size="12" font-weight="600" fill="#1B4F72" text-anchor="end">View</text>
    </g>
    <line x1="632" y1="510" x2="1128" y2="510" stroke="#F5EDEC"/>
    <g transform="translate(632,512)">
      <circle cx="18" cy="20" r="16" fill="url(#gold)"/><text x="18" y="25" font-size="13" font-weight="800" fill="#531010" text-anchor="middle">A</text>
      <text x="46" y="16" font-size="13.5" font-weight="700" fill="#1E293B">Amir Alonto</text>
      <text x="46" y="32" font-size="11" fill="#94A3B8">Finance and Accounting Office</text>
      <text x="496" y="24" font-size="12" font-weight="600" fill="#1B4F72" text-anchor="end">View</text>
    </g>
    <line x1="632" y1="564" x2="1128" y2="564" stroke="#F5EDEC"/>
    <g transform="translate(632,566)">
      <circle cx="18" cy="20" r="16" fill="url(#gold)"/><text x="18" y="25" font-size="13" font-weight="800" fill="#531010" text-anchor="middle">A</text>
      <text x="46" y="16" font-size="13.5" font-weight="700" fill="#1E293B">Ali Hassan Updated</text>
      <text x="46" y="32" font-size="11" fill="#94A3B8">Office of the Registrar</text>
      <text x="496" y="24" font-size="12" font-weight="600" fill="#1B4F72" text-anchor="end">View</text>
    </g>
    <line x1="632" y1="618" x2="1128" y2="618" stroke="#F5EDEC"/>
    <g transform="translate(632,620)">
      <circle cx="18" cy="20" r="16" fill="url(#gold)"/><text x="18" y="25" font-size="13" font-weight="800" fill="#531010" text-anchor="middle">N</text>
      <text x="46" y="16" font-size="13.5" font-weight="700" fill="#1E293B">Norhadi M. Norodin</text>
      <text x="46" y="32" font-size="11" fill="#94A3B8">Campo Ranao St.</text>
      <text x="496" y="24" font-size="12" font-weight="600" fill="#1B4F72" text-anchor="end">View</text>
    </g>
  </g>
</svg>
